<svg width="23" height="16" viewBox="0 0 23 16" fill="none" xmlns="http://www.w3.org/2000/svg">
<path d="M21.7804 0.961151H1.5882C0.953539 0.961151 0.434326 1.48036 0.434326 2.11498V14.8073C0.434326 15.4419 0.953539 15.9612 1.5882 15.9612H21.7805C22.415 15.9612 22.9343 15.4419 22.9343 14.8073V2.11498C22.9343 1.48036 22.4151 0.961151 21.7804 0.961151ZM21.3474 1.82648L12.3481 8.57655C12.1862 8.69969 11.9379 8.77672 11.6843 8.77558C11.4307 8.77672 11.1824 8.69969 11.0205 8.57655L2.02114 1.82648H21.3474ZM16.5403 9.02194L21.4441 15.0797C21.449 15.0857 21.455 15.0903 21.4603 15.0958H1.90834C1.91352 15.0901 1.91959 15.0857 1.92451 15.0797L6.82836 9.02194C6.9786 8.83618 6.95013 8.56385 6.76402 8.41325C6.57826 8.263 6.30594 8.29148 6.15564 8.47728L1.2997 14.4758V2.36735L10.5016 9.26878C10.8475 9.52638 11.2683 9.63976 11.6842 9.64091C12.0996 9.64003 12.5208 9.52665 12.8669 9.26878L22.0687 2.36735V14.4758L17.2129 8.47728C17.0626 8.29152 16.79 8.26296 16.6045 8.41325C16.4185 8.5635 16.3899 8.83618 16.5403 9.02194Z" fill="#E3AA80"/>
</svg>
