<svg width="40" height="41" viewBox="0 0 40 41" fill="none" xmlns="http://www.w3.org/2000/svg">
<circle cx="20" cy="20.4081" r="20" fill="white"/>
<path d="M23.8281 20.4081C23.8281 22.5223 22.1143 24.2362 20 24.2362C17.8857 24.2362 16.1719 22.5223 16.1719 20.4081C16.1719 18.2938 17.8857 16.58 20 16.58C22.1143 16.58 23.8281 18.2938 23.8281 20.4081Z" fill="#E3AA80"/>
<path d="M28.9525 13.635C28.7685 13.1364 28.4749 12.685 28.0934 12.3145C27.723 11.933 27.2719 11.6395 26.7729 11.4554C26.3683 11.2983 25.7604 11.1112 24.6407 11.0602C23.4294 11.005 23.0663 10.9931 19.9999 10.9931C16.9332 10.9931 16.57 11.0047 15.3591 11.0599C14.2394 11.1112 13.6312 11.2983 13.2268 11.4554C12.7278 11.6395 12.2765 11.933 11.9063 12.3145C11.5248 12.685 11.2313 13.136 11.0469 13.635C10.8898 14.0397 10.7027 14.6479 10.6517 15.7676C10.5965 16.9785 10.5846 17.3417 10.5846 20.4084C10.5846 23.4748 10.5965 23.838 10.6517 25.0492C10.7027 26.1689 10.8898 26.7768 11.0469 27.1815C11.2313 27.6804 11.5245 28.1315 11.906 28.502C12.2765 28.8834 12.7275 29.177 13.2265 29.361C13.6312 29.5185 14.2394 29.7056 15.3591 29.7565C16.57 29.8118 16.9329 29.8234 19.9996 29.8234C23.0666 29.8234 23.4297 29.8118 24.6404 29.7565C25.7601 29.7056 26.3683 29.5185 26.7729 29.361C27.7745 28.9747 28.5662 28.183 28.9525 27.1815C29.1097 26.7768 29.2968 26.1689 29.348 25.0492C29.4033 23.838 29.4149 23.4748 29.4149 20.4084C29.4149 17.3417 29.4033 16.9785 29.348 15.7676C29.2971 14.6479 29.11 14.0397 28.9525 13.635ZM19.9999 26.3053C16.7427 26.3053 14.1024 23.6652 14.1024 20.4081C14.1024 17.1509 16.7427 14.5109 19.9999 14.5109C23.2567 14.5109 25.8971 17.1509 25.8971 20.4081C25.8971 23.6652 23.2567 26.3053 19.9999 26.3053ZM26.1302 15.6559C25.3691 15.6559 24.7521 15.0388 24.7521 14.2777C24.7521 13.5166 25.3691 12.8995 26.1302 12.8995C26.8914 12.8995 27.5084 13.5166 27.5084 14.2777C27.5081 15.0388 26.8914 15.6559 26.1302 15.6559Z" fill="#E3AA80"/>
<path d="M20 0.408081C8.95599 0.408081 0 9.36407 0 20.4081C0 31.4521 8.95599 40.4081 20 40.4081C31.044 40.4081 40 31.4521 40 20.4081C40 9.36407 31.044 0.408081 20 0.408081ZM31.4151 25.1429C31.3596 26.3654 31.1652 27.2001 30.8813 27.9307C30.2847 29.4733 29.0652 30.6928 27.5226 31.2894C26.7923 31.5732 25.9573 31.7673 24.7351 31.8232C23.5104 31.879 23.1192 31.8925 20.0003 31.8925C16.8811 31.8925 16.4902 31.879 15.2652 31.8232C14.043 31.7673 13.208 31.5732 12.4777 31.2894C11.7111 31.001 11.0172 30.5491 10.4434 29.9647C9.85931 29.3912 9.40735 28.697 9.11896 27.9307C8.83514 27.2004 8.64075 26.3654 8.58521 25.1432C8.52875 23.9182 8.51562 23.527 8.51562 20.4081C8.51562 17.2892 8.52875 16.8979 8.5849 15.6733C8.64044 14.4507 8.83453 13.6161 9.11835 12.8855C9.40674 12.1192 9.85901 11.4249 10.4434 10.8515C11.0168 10.2671 11.7111 9.81512 12.4774 9.52673C13.208 9.24292 14.0427 9.04883 15.2652 8.99298C16.4899 8.93713 16.8811 8.92371 20 8.92371C23.1189 8.92371 23.5101 8.93713 24.7348 8.99329C25.9573 9.04883 26.792 9.24292 27.5226 9.52643C28.2889 9.81482 28.9832 10.2671 29.5569 10.8515C30.141 11.4252 30.5933 12.1192 30.8813 12.8855C31.1655 13.6161 31.3596 14.4507 31.4154 15.6733C31.4713 16.8979 31.4844 17.2892 31.4844 20.4081C31.4844 23.527 31.4713 23.9182 31.4151 25.1429Z" fill="#E3AA80"/>
</svg>
