<svg width="23" height="28" viewBox="0 0 23 28" fill="none" xmlns="http://www.w3.org/2000/svg">
<path d="M11.4999 11.1472C11.827 11.1472 12.092 10.9116 12.092 10.6209C12.092 10.3302 11.827 10.0946 11.4999 10.0946C11.1729 10.0946 10.9078 10.3302 10.9078 10.6209C10.9078 10.9116 11.1729 11.1472 11.4999 11.1472Z" fill="#E3AA80"/>
<path d="M7.05923 15.884H15.9408C16.2678 15.884 16.5329 15.6484 16.5329 15.3577V10.4118L17.3318 11.0206C17.5811 11.2105 17.9548 11.1832 18.1667 10.9634C18.3795 10.7427 18.3507 10.4105 18.1024 10.2213L11.8854 5.48447C11.6637 5.31552 11.3364 5.31552 11.1147 5.48447L4.89763 10.2213C4.6493 10.4104 4.62052 10.7427 4.83333 10.9634C5.04607 11.1842 5.41993 11.2097 5.6682 11.0206L6.46712 10.4118V15.3577C6.46712 15.6484 6.73227 15.884 7.05923 15.884ZM7.65133 9.50957L11.5 6.57726L15.3487 9.50957V14.8314H12.0921V12.7262C12.0921 12.4355 11.827 12.1998 11.5 12.1998C11.1731 12.1998 10.9079 12.4355 10.9079 12.7262V14.8314H7.65133V9.50957Z" fill="#E3AA80"/>
<path d="M11.0745 27.0922C11.1861 27.1946 11.3396 27.2525 11.5 27.2525C11.6604 27.2525 11.8139 27.1946 11.9255 27.0922C15.7045 23.6249 22.75 15.8246 22.75 10.6209C22.75 8.78427 22.1883 6.96354 21.1254 5.35554C20.9597 5.1049 20.5969 5.02111 20.3149 5.16833C20.0329 5.31559 19.9387 5.63811 20.1043 5.88875C21.0604 7.33527 21.5658 8.97164 21.5658 10.6209C21.5658 15.9456 13.4666 24.0645 11.5 25.9569C9.53344 24.0645 1.43421 15.9456 1.43421 10.6209C1.43421 5.59975 6.04381 1.35775 11.5 1.35775C13.2986 1.35775 15.0722 1.8178 16.6288 2.68822C16.9055 2.84301 17.2712 2.76901 17.4453 2.52296C17.6193 2.2769 17.5361 1.95196 17.2593 1.79722C15.5136 0.821062 13.522 0.305115 11.5 0.305115C5.191 0.305115 0.25 5.18722 0.25 10.6209C0.25 15.8192 7.28374 23.6141 11.0745 27.0922Z" fill="#E3AA80"/>
<path d="M19.0197 4.25249C19.3467 4.25249 19.6118 4.01685 19.6118 3.72618C19.6118 3.4355 19.3467 3.19986 19.0197 3.19986C18.6927 3.19986 18.4276 3.4355 18.4276 3.72618C18.4276 4.01685 18.6927 4.25249 19.0197 4.25249Z" fill="#E3AA80"/>
</svg>
