<svg width="23" height="23" viewBox="0 0 23 23" fill="none" xmlns="http://www.w3.org/2000/svg">
<path d="M16.6051 22.8831C15.8788 22.8831 15.1586 22.7547 14.4544 22.4989C11.3521 21.3719 8.47245 19.5364 6.12673 17.1907C3.78102 14.845 1.94549 11.9654 0.818551 8.86302C0.456411 7.86602 0.34954 6.83686 0.501014 5.80401C0.642908 4.83654 1.01766 3.89734 1.5848 3.08789C2.15444 2.27489 2.91388 1.59868 3.78097 1.1324C4.70564 0.635175 5.71489 0.383026 6.78079 0.383026C7.1123 0.383026 7.39882 0.614653 7.46829 0.938782L8.57189 6.08894C8.62186 6.32215 8.55018 6.56481 8.38157 6.73346L6.49582 8.61918C8.27475 12.156 11.1613 15.0426 14.6982 16.8215L16.5839 14.9358C16.7525 14.7672 16.9952 14.6956 17.2284 14.7455L22.3786 15.8491C22.7027 15.9185 22.9343 16.205 22.9343 16.5366C22.9343 17.6025 22.6822 18.6118 22.1849 19.5364C21.7186 20.4035 21.0424 21.163 20.2294 21.7326C19.42 22.2997 18.4808 22.6745 17.5133 22.8164C17.2101 22.8609 16.907 22.8831 16.6051 22.8831ZM6.21901 1.81999C4.81304 1.97519 3.56512 2.71213 2.73643 3.89488C1.80456 5.22483 1.58726 6.86064 2.14025 8.38293C4.30685 14.3472 8.9702 19.0106 14.9345 21.1772C16.4568 21.7302 18.0926 21.5129 19.4226 20.581C20.6053 19.7523 21.3422 18.5044 21.4975 17.0984L17.3078 16.2007L15.3384 18.17C15.1289 18.3796 14.8105 18.4353 14.5423 18.3092C10.3593 16.3441 6.97335 12.9581 5.00819 8.77513C4.8822 8.50694 4.93784 8.18853 5.1474 7.979L7.11678 6.00962L6.21901 1.81999Z" fill="#E3AA80"/>
</svg>
