<svg width="40" height="41" viewBox="0 0 40 41" fill="none" xmlns="http://www.w3.org/2000/svg">
<path d="M20 40.2524C31.0457 40.2524 40 31.2981 40 20.2524C40 9.20675 31.0457 0.252441 20 0.252441C8.9543 0.252441 0 9.20675 0 20.2524C0 31.2981 8.9543 40.2524 20 40.2524Z" fill="#E3AA80"/>
<path d="M9.15162 19.8191L28.435 12.3841C29.33 12.0608 30.1116 12.6024 29.8216 13.9558L29.8233 13.9541L26.54 29.4224C26.2966 30.5191 25.645 30.7858 24.7333 30.2691L19.7333 26.5841L17.3216 28.9074C17.055 29.1741 16.83 29.3991 16.3133 29.3991L16.6683 24.3108L25.935 15.9391C26.3383 15.5841 25.845 15.3841 25.3133 15.7374L13.8616 22.9474L8.92495 21.4074C7.85328 21.0674 7.82995 20.3358 9.15162 19.8191Z" fill="white"/>
</svg>
