<svg width="40" height="41" viewBox="0 0 40 41" fill="none" xmlns="http://www.w3.org/2000/svg">
<ellipse cx="20" cy="20.2524" rx="19.8245" ry="20" fill="white"/>
<path d="M20 0.252441C8.95599 0.252441 0 9.20844 0 20.2524C0 31.2964 8.95599 40.2524 20 40.2524C31.044 40.2524 40 31.2964 40 20.2524C40 9.20844 31.044 0.252441 20 0.252441ZM20.4239 31.897C20.4236 31.897 20.4242 31.897 20.4239 31.897H20.419C18.4155 31.8961 16.4468 31.3938 14.6985 30.4404L8.35297 32.1046L10.0513 25.9034C9.0036 24.0888 8.45245 22.0301 8.45337 19.921C8.45612 13.3231 13.826 7.95538 20.4239 7.95538C23.6258 7.9566 26.6315 9.20294 28.8913 11.4646C31.1514 13.7266 32.3953 16.7332 32.3941 19.9305C32.3914 26.5287 27.0209 31.897 20.4239 31.897Z" fill="#E3AA80"/>
<path d="M20.7752 9.97656C15.3354 9.97656 10.9114 14.4379 10.9089 19.9219C10.9083 21.8012 11.4298 23.6313 12.4169 25.2149L12.6513 25.5912L11.6549 29.2615L15.3874 28.274L15.7477 28.4894C17.2617 29.3958 18.9974 29.8752 20.767 29.8759H20.771C26.2065 29.8759 30.6306 25.4142 30.633 19.9299C30.6339 17.2721 29.609 14.7733 27.7472 12.8934C25.8853 11.0135 23.409 9.97748 20.7752 9.97656ZM26.5759 24.1981C26.3287 24.8963 25.1445 25.5338 24.5749 25.6199C24.0639 25.6968 23.4178 25.7288 22.7075 25.5015C22.2768 25.3635 21.7247 25.1795 21.0172 24.8716C18.0433 23.5764 16.101 20.5564 15.9528 20.3568C15.8046 20.1572 14.7422 18.7354 14.7422 17.2635C14.7422 15.792 15.5081 15.0684 15.7797 14.7693C16.0517 14.47 16.3729 14.3952 16.5705 14.3952C16.768 14.3952 16.9658 14.397 17.1386 14.4056C17.3207 14.4147 17.5651 14.3357 17.8056 14.9189C18.0527 15.5176 18.6456 16.9892 18.7197 17.1387C18.7938 17.2886 18.8431 17.4631 18.7445 17.6627C18.6456 17.8623 18.3171 18.2929 18.0034 18.6854C17.8718 18.8499 17.7003 18.9963 17.8733 19.2957C18.0461 19.5948 18.6414 20.5741 19.5225 21.3669C20.6551 22.3856 21.6104 22.7012 21.9068 22.851C22.203 23.0005 22.376 22.9755 22.549 22.7762C22.7218 22.5767 23.2902 21.9031 23.4877 21.6038C23.6852 21.3044 23.883 21.3544 24.1547 21.4542C24.4266 21.5537 25.8841 22.2773 26.1805 22.4268C26.477 22.5767 26.6745 22.6514 26.7486 22.7762C26.823 22.9011 26.823 23.4995 26.5759 24.1981Z" fill="#E3AA80"/>
</svg>
